<svg width="24" height="24" viewBox="0 0 24 24" fill="none" xmlns="http://www.w3.org/2000/svg">
<path fill-rule="evenodd" clip-rule="evenodd" d="M12 0C5.37258 0 0 5.37258 0 12C0 18.6274 5.37258 24 12 24C18.6274 24 24 18.6274 24 12C24 5.37258 18.6274 0 12 0ZM12.1923 14.8762C13.4668 14.8762 14.5 13.843 14.5 12.5685V6.98389C14.5 5.70939 13.4668 4.6762 12.1923 4.6762C10.9178 4.6762 9.88461 5.70939 9.88461 6.9839V12.5685C9.88461 13.843 10.9178 14.8762 12.1923 14.8762ZM12.4 20C13.5598 20 14.5 19.0598 14.5 17.9C14.5 16.7402 13.5598 15.8 12.4 15.8H11.9846C10.8248 15.8 9.88461 16.7402 9.88461 17.9C9.88461 19.0598 10.8248 20 11.9846 20H12.4Z" fill="url(#paint0_linear_2595_38323)"/>
<defs>
<linearGradient id="paint0_linear_2595_38323" x1="12" y1="0" x2="12" y2="24" gradientUnits="userSpaceOnUse">
<stop stop-color="#CCCCCC"/>
<stop offset="1" stop-color="#5D5D5D"/>
</linearGradient>
</defs>
</svg>
